<?xml version="1.0" encoding="utf-8"?>
<svg viewBox="0 0 500 500" xmlns="http://www.w3.org/2000/svg">
  <rect x="-61.837" y="-42.823" width="656.234" height="643.366" style="fill: rgb(216, 216, 216); fill-opacity: 0; pointer-events: none;"/>
  <g>
    <title>Box</title>
    <rect x="56.746" y="52.522" width="95.508" height="52.66" style="fill: rgb(216, 216, 216); stroke: rgb(119, 119, 119);" rx="3.838" ry="3.838"/>
    <text style="fill: rgb(85, 85, 85); font-family: Arial, sans-serif; font-size: 11.9px; white-space: pre;" x="79.039" y="82.056">Utilizador</text>
  </g>
  <g>
    <title>Ball</title>
    <ellipse style="fill: rgb(216, 216, 216); stroke: rgb(119, 119, 119);" cx="78.055" cy="-0.144" rx="30.166" ry="22.576"/>
    <text style="fill: rgb(85, 85, 85); font-family: Arial, sans-serif; font-size: 10px; white-space: pre;" x="1.557" y="-0.248"><tspan x="55.139" y="1.564" style="text-decoration: underline solid rgba(255, 255, 255, 0.8); font-size: 10px; word-spacing: 0px;">Username</tspan></text>
    <line style="stroke: rgb(119, 119, 119);" x1="77.68248500201463" y1="22.431999206542983" x2="77.68248500201463" y2="52.521999359130874"/>
  </g>
  <g transform="matrix(1, 0, 0, 1, 71.03891, 0)">
    <title>Ball</title>
    <ellipse style="fill: rgb(216, 216, 216); stroke: rgb(119, 119, 119);" cx="78.055" cy="-0.144" rx="30.166" ry="22.576"/>
    <text style="fill: rgb(85, 85, 85); font-family: Arial, sans-serif; font-size: 10px; white-space: pre;" x="55.474" y="1.676">Password</text>
    <line style="stroke: rgb(119, 119, 119);" x1="77.68248500201463" y1="22.431999206542983" x2="77.68248500201463" y2="52.521999359130874"/>
  </g>
  <g transform="matrix(1, 0, 0, 1, -92.300064, 81.856613)">
    <title>Ball</title>
    <ellipse style="fill: rgb(216, 216, 216); stroke: rgb(119, 119, 119);" cx="78.055" cy="-0.144" rx="30.166" ry="22.576"/>
    <text style="fill: rgb(85, 85, 85); font-family: Arial, sans-serif; font-size: 10px; white-space: pre;" x="56.536" y="2.362" transform="matrix(1, 0, 0, 1, 0, -4.714967)">Avaliação<tspan x="56.5359992980957" dy="1em">​</tspan> Sistema</text>
    <line style="stroke: rgb(119, 119, 119);" x1="108.572" y1="0.627" x2="148.808" y2="1.125"/>
  </g>
  <g transform="matrix(1, 0, 0, 1, 339.414429, 0.47838)">
    <title>Box</title>
    <rect x="56.746" y="52.522" width="95.508" height="52.66" style="fill: rgb(216, 216, 216); stroke: rgb(119, 119, 119);" rx="3.838" ry="3.838"/>
    <text style="fill: rgb(85, 85, 85); font-family: Arial, sans-serif; font-size: 11.9px; white-space: pre;" x="83.803" y="80.679">Registo</text>
  </g>
  <g transform="matrix(1, 0, 0, 1, 436.086365, 12.044373)">
    <title>Ball</title>
    <ellipse style="fill: rgb(216, 216, 216); stroke: rgb(119, 119, 119);" cx="78.055" cy="-0.144" rx="30.166" ry="22.576"/>
    <text style="fill: rgb(85, 85, 85); font-family: Arial, sans-serif; font-size: 9px; white-space: pre;" x="55.538" y="2.579">Data(Millis)</text>
    <line style="stroke: rgb(119, 119, 119);" x1="65.842" y1="20.367" x2="52.471" y2="41.078"/>
  </g>
  <g transform="matrix(1, 0, 0, 1, 172.878799, 343.426147)">
    <title>Box</title>
    <rect x="56.746" y="52.522" width="95.508" height="52.66" style="fill: rgb(216, 216, 216); stroke: rgb(119, 119, 119);" rx="3.838" ry="3.838"/>
    <text style="fill: rgb(85, 85, 85); font-family: Arial, sans-serif; font-size: 11.9px; white-space: pre;" x="85.464" y="80.887">Museu</text>
  </g>
  <g>
    <title>Conector</title>
    <rect x="396.16" y="198.058" width="40" height="40" style="fill: rgb(216, 216, 216); stroke: rgb(119, 119, 119);" transform="matrix(0.707107, 0.707107, -0.707107, 0.707107, 303.510529, -24.227543)"/>
    <line style="stroke: rgb(119, 119, 119);" x1="415.306" y1="424.08" x2="325.133" y2="423.729"/>
    <line style="stroke: rgb(119, 119, 119);" x1="443.664" y1="396.189" x2="441.905" y2="105.66"/>
    <text style="fill: rgb(85, 85, 85); font-family: Arial, sans-serif; font-size: 11.9px; white-space: pre;" x="423.33" y="427.835">contém</text>
    <text style="fill: rgb(85, 85, 85); font-family: Arial, sans-serif; font-size: 11.9px; white-space: pre;" x="442.728" y="116.541">N</text>
    <text style="fill: rgb(85, 85, 85); font-family: Arial, sans-serif; font-size: 11.9px; white-space: pre;" x="326.774" y="421.517">1</text>
    <text style="fill: rgb(85, 85, 85); font-family: Arial, sans-serif; font-size: 11.9px; white-space: pre;" x="326.774" y="438.113">1</text>
  </g>
  <g transform="matrix(1, 0, 0, 1, -172.269989, -148.965805)">
    <title>Conector</title>
    <rect x="396.16" y="198.058" width="40" height="40" style="fill: rgb(216, 216, 216); stroke: rgb(119, 119, 119);" transform="matrix(0.707107, 0.707107, -0.707107, 0.707107, 302.901611, -222.118073)"/>
    <line style="stroke: rgb(119, 119, 119);" x1="414.697" y1="226.189" x2="324.524" y2="225.838"/>
    <line style="stroke: rgb(119, 119, 119);" x1="471.185" y1="226.196" x2="568.277" y2="226.494"/>
    <text style="fill: rgb(85, 85, 85); font-family: Arial, sans-serif; font-size: 11.9px; white-space: pre;" x="422.721" y="229.944">contém</text>
    <text style="fill: rgb(85, 85, 85); font-family: Arial, sans-serif; font-size: 11.9px; white-space: pre;" x="557.197" y="223.711">N</text>
    <text style="fill: rgb(85, 85, 85); font-family: Arial, sans-serif; font-size: 11.9px; white-space: pre;" x="326.165" y="223.626">1</text>
  </g>
  <g transform="matrix(1, 0, 0, 1, 453.928467, 131.370468)">
    <title>Ball</title>
    <ellipse style="fill: rgb(216, 216, 216); stroke: rgb(119, 119, 119);" cx="92.282" cy="-4.52" rx="30.166" ry="22.576"/>
    <text style="fill: rgb(85, 85, 85); font-family: Arial, sans-serif; font-size: 10px; white-space: pre;" x="73.868" y="-1.177">Duração</text>
    <line style="stroke: rgb(119, 119, 119);" x1="62.957" y1="-10.507" x2="36.909" y2="-27.722"/>
  </g>
  <g transform="matrix(1, 0, 0, 1, 172.878799, 172.129028)">
    <title>Box</title>
    <rect x="56.746" y="52.522" width="95.508" height="52.66" style="fill: rgb(216, 216, 216); stroke: rgb(119, 119, 119);" rx="3.838" ry="3.838"/>
    <text style="fill: rgb(85, 85, 85); font-family: Arial, sans-serif; font-size: 11.9px; white-space: pre;" x="84.013" y="79.949">Review</text>
  </g>
  <g transform="matrix(1, 0, 0, 1, -172.269989, -66.38649)" style="">
    <title>Conector</title>
    <rect x="396.16" y="198.058" width="40" height="40" style="fill: rgb(216, 216, 216); stroke: rgb(119, 119, 119);" transform="matrix(0.707107, 0.707107, -0.707107, 0.707107, 302.901611, -222.118073)"/>
    <line style="stroke: rgb(119, 119, 119);" x1="414.697" y1="226.189" x2="297.103" y2="225.536"/>
    <line style="stroke: rgb(119, 119, 119);" x1="442.995" y1="254.835" x2="443.281" y2="290.886"/>
    <text style="fill: rgb(85, 85, 85); font-family: Arial, sans-serif; font-size: 11.9px; white-space: pre;" x="422.721" y="229.944">contém</text>
    <text style="fill: rgb(85, 85, 85); font-family: Arial, sans-serif; font-size: 11.9px; white-space: pre;" x="445.934" y="288.365">N</text>
    <text style="fill: rgb(85, 85, 85); font-family: Arial, sans-serif; font-size: 11.9px; white-space: pre;" x="297.604" y="182.518">1</text>
    <line style="stroke: rgb(119, 119, 119);" x1="297.604" y1="225.536" x2="297.571" y2="171.703"/>
  </g>
  <g transform="matrix(1, 0, 0, 1, -172.269989, 106.184143)">
    <title>Conector</title>
    <rect x="396.16" y="198.058" width="40" height="40" style="fill: rgb(216, 216, 216); stroke: rgb(119, 119, 119);" transform="matrix(0.707107, 0.707107, -0.707107, 0.707107, 302.901611, -222.118073)"/>
    <line style="stroke: rgb(119, 119, 119);" x1="442.968" y1="198.109" x2="442.868" y2="171.139"/>
    <line style="stroke: rgb(119, 119, 119);" x1="443.189" y1="254.511" x2="443.278" y2="289.725"/>
    <text style="fill: rgb(85, 85, 85); font-family: Arial, sans-serif; font-size: 11.9px; white-space: pre;" x="422.721" y="229.944">contém</text>
    <text style="fill: rgb(85, 85, 85); font-family: Arial, sans-serif; font-size: 11.9px; white-space: pre;" x="446.544" y="181.916">N</text>
    <text style="fill: rgb(85, 85, 85); font-family: Arial, sans-serif; font-size: 11.9px; white-space: pre;" x="445.253" y="287.239">1</text>
    <text style="fill: rgb(85, 85, 85); font-family: Arial, sans-serif; font-size: 11.9px; white-space: pre;" x="661.338" y="376.549">N</text>
  </g>
  <rect x="396.16" y="198.058" width="40" height="40" style="fill: rgb(216, 216, 216); stroke: rgb(119, 119, 119);" transform="matrix(0.707107, 0.707107, -0.707107, 0.707107, 258.099548, 28.495422)"/>
  <text style="fill: rgb(85, 85, 85); font-family: Arial, sans-serif; font-size: 11.9px; white-space: pre;" x="377.919" y="480.558">contém</text>
  <g transform="matrix(1, 0, 0, 1, 284.463959, 22.719997)">
    <title>Ball</title>
    <ellipse style="fill: rgb(216, 216, 216); stroke: rgb(119, 119, 119);" cx="78.055" cy="-0.144" rx="30.166" ry="22.576"/>
    <text style="fill: rgb(85, 85, 85); font-family: Arial, sans-serif; font-size: 10px; white-space: pre; text-decoration: underline solid rgba(255, 255, 255, 0.8);" x="56.118" y="2.173">idRegisto</text>
    <line style="stroke: rgb(119, 119, 119);" x1="96.005" y1="18.056" x2="111.543" y2="41.4"/>
  </g>
  <g transform="matrix(1, 0, 0, 1, 297.364166, 254.175598)">
    <title>Ball</title>
    <ellipse style="fill: rgb(216, 216, 216); stroke: rgb(119, 119, 119);" cx="78.055" cy="-0.144" rx="30.166" ry="22.576"/>
    <text style="fill: rgb(85, 85, 85); font-family: Arial, sans-serif; font-size: 11.8px; white-space: pre;" x="62.72" y="2.635">Texto</text>
    <line style="stroke: rgb(119, 119, 119);" x1="47.635" y1="-0.37" x2="27.753" y2="-0.346"/>
  </g>
  <g transform="matrix(1, 0, 0, 1, 297.364166, 318.295593)">
    <title>Ball</title>
    <ellipse style="fill: rgb(216, 216, 216); stroke: rgb(119, 119, 119);" cx="78.055" cy="-0.144" rx="30.166" ry="22.576"/>
    <text style="fill: rgb(85, 85, 85); font-family: Arial, sans-serif; font-size: 10px; white-space: pre;" x="52.12" y="3.051">Data(Millis)</text>
    <line style="stroke: rgb(119, 119, 119);" x1="52.12" y1="-11.716" x2="25.974" y2="-41.359"/>
  </g>
  <g transform="matrix(1, 0, 0, 1, 297.364166, 195.298462)">
    <title>Ball</title>
    <ellipse style="fill: rgb(216, 216, 216); stroke: rgb(119, 119, 119);" cx="78.055" cy="-0.144" rx="30.166" ry="22.576"/>
    <text style="fill: rgb(85, 85, 85); font-family: Arial, sans-serif; font-size: 11.2px; white-space: pre; text-decoration: underline solid rgba(255, 255, 255, 0.8);" x="54.35" y="3.367">idReview</text>
    <line style="stroke: rgb(119, 119, 119);" x1="54.35" y1="14.186" x2="27.096" y2="31.157"/>
  </g>
  <g transform="matrix(1, 0, 0, 1, 76.517662, 385.045227)">
    <title>Ball</title>
    <ellipse style="fill: rgb(216, 216, 216); stroke: rgb(119, 119, 119);" cx="78.055" cy="-0.144" rx="30.166" ry="22.576"/>
    <text style="fill: rgb(85, 85, 85); font-family: Arial, sans-serif; font-size: 11.2px; white-space: pre;" x="55.689" y="4.184">avaliação</text>
    <line style="stroke: rgb(119, 119, 119);" x1="108.439" y1="-0.087" x2="153.379" y2="14.322"/>
  </g>
  <g transform="matrix(1, 0, 0, 1, 122.839752, 337.49585)">
    <title>Ball</title>
    <ellipse style="fill: rgb(216, 216, 216); stroke: rgb(119, 119, 119);" cx="78.055" cy="-0.144" rx="30.166" ry="22.576"/>
    <text style="fill: rgb(85, 85, 85); font-family: Arial, sans-serif; font-size: 8.1px; white-space: pre; text-decoration: underline solid rgba(255, 255, 255, 0.8);" x="54.35" y="2.306">nomeMuseu</text>
    <line style="stroke: rgb(119, 119, 119);" x1="100.807" y1="14.437" x2="131.564" y2="58.331"/>
  </g>
  <g transform="matrix(1, 0, 0, 1, 65.1875, 477.567993)">
    <title>Ball</title>
    <ellipse style="fill: rgb(216, 216, 216); stroke: rgb(119, 119, 119);" cx="78.055" cy="-0.144" rx="30.166" ry="22.576"/>
    <text style="fill: rgb(85, 85, 85); font-family: Arial, sans-serif; font-size: 11.2px; white-space: pre;" x="55.689" y="4.184">categoria</text>
    <line style="stroke: rgb(119, 119, 119);" x1="104.169" y1="-10.837" x2="164.7" y2="-34.087"/>
  </g>
  <g transform="matrix(1, 0, 0, 1, 95.507996, 531.307739)">
    <title>Ball</title>
    <ellipse style="fill: rgb(216, 216, 216); stroke: rgb(119, 119, 119);" cx="78.055" cy="-0.144" rx="30.166" ry="22.576"/>
    <text style="fill: rgb(85, 85, 85); font-family: Arial, sans-serif; font-size: 11.2px; white-space: pre;" x="63.116" y="2.01">preço</text>
    <line style="stroke: rgb(119, 119, 119);" x1="94.432" y1="-18.696" x2="140.9" y2="-82.71"/>
  </g>
  <g transform="matrix(1, 0, 0, 1, 318.242157, 478.62674)">
    <title>Ball</title>
    <line style="stroke: rgb(119, 119, 119);" x1="51.983" y1="-1.736" x2="33.854" y2="-1.957"/>
    <line style="stroke: rgb(119, 119, 119);" x1="39.463" y1="-37.686" x2="39.658" y2="-1.226" transform="matrix(1, 0, 0, 1, -5.498906, -0.313966)"/>
    <line style="stroke: rgb(119, 119, 119);" x1="10.965" y1="-19.646" x2="37.722" y2="-19.919" transform="matrix(1, 0, 0, 1, -3.603489, -17.765732)"/>
  </g>
  <g transform="matrix(1, 0, 0, 1, 297.364166, 541.605469)">
    <title>Ball</title>
    <ellipse style="fill: rgb(216, 216, 216); stroke: rgb(119, 119, 119);" cx="78.055" cy="-0.144" rx="30.166" ry="22.576"/>
    <text style="fill: rgb(85, 85, 85); font-family: Arial, sans-serif; font-size: 11.2px; white-space: pre;" x="56.845" y="2.01">contacto</text>
    <line style="stroke: rgb(119, 119, 119);" x1="58.885" y1="-17.903" x2="21.007" y2="-93.012"/>
  </g>
  <g transform="matrix(1, 0, 0, 1, 230.456726, 561.047119)">
    <title>Ball</title>
    <ellipse style="fill: rgb(216, 216, 216); stroke: rgb(119, 119, 119);" cx="78.055" cy="-0.144" rx="30.166" ry="22.576"/>
    <text style="fill: rgb(85, 85, 85); font-family: Arial, sans-serif; font-size: 11.2px; white-space: pre;" x="59.411" y="3.526">website</text>
    <line style="stroke: rgb(119, 119, 119);" x1="74.856" y1="-22.619" x2="62.835" y2="-112.376"/>
  </g>
  <g transform="matrix(1, 0, 0, 1, 161.911926, 561.047119)">
    <title>Ball</title>
    <ellipse style="fill: rgb(216, 216, 216); stroke: rgb(119, 119, 119);" cx="78.055" cy="-0.144" rx="30.166" ry="22.576"/>
    <text style="fill: rgb(85, 85, 85); font-family: Arial, sans-serif; font-size: 10.4px; white-space: pre;" x="52.82" y="2.597">localização</text>
    <line style="stroke: rgb(119, 119, 119);" x1="82.985" y1="-22.191" x2="103.051" y2="-112.376"/>
  </g>
  <g transform="matrix(1, 0, 0, 1, 91.174911, 247.371017)">
    <title>Ball</title>
    <ellipse style="fill: rgb(216, 216, 216); stroke: rgb(119, 119, 119);" cx="78.055" cy="-0.144" rx="30.166" ry="22.576"/>
    <text style="fill: rgb(85, 85, 85); font-family: Arial, sans-serif; font-size: 11.8px; white-space: pre;" x="54.041" y="2.933">avaliação</text>
    <line style="stroke: rgb(119, 119, 119);" x1="108.134" y1="1.865" x2="137.873" y2="1.442"/>
  </g>
  <g transform="matrix(1, 0, 0, 1, -45.339005, 178.933594)">
    <title>Box</title>
    <rect x="56.746" y="52.522" width="95.508" height="52.66" style="fill: rgb(216, 216, 216); stroke: rgb(119, 119, 119);" rx="3.838" ry="3.838"/>
    <text style="fill: rgb(85, 85, 85); font-family: Arial, sans-serif; font-size: 11.9px; white-space: pre;" x="66.962" y="81.07">Administrador</text>
  </g>
  <g transform="matrix(1, 0, 0, 1, -92.300064, 178.534988)">
    <title>Ball</title>
    <ellipse style="fill: rgb(216, 216, 216); stroke: rgb(119, 119, 119);" cx="78.055" cy="-0.144" rx="30.166" ry="22.576"/>
    <text style="fill: rgb(85, 85, 85); font-family: Arial, sans-serif; font-size: 10px; white-space: pre; text-decoration: underline solid rgba(255, 255, 255, 0.8);" x="59.401" y="1.228">idAdmin</text>
    <line style="stroke: rgb(119, 119, 119);" x1="119.093" y1="52.971" x2="95.078" y2="18.431"/>
  </g>
  <g transform="matrix(1, 0, 0, 1, 8.857002, 178.534988)">
    <title>Ball</title>
    <ellipse style="fill: rgb(216, 216, 216); stroke: rgb(119, 119, 119);" cx="78.055" cy="-0.144" rx="30.166" ry="22.576"/>
    <text style="fill: rgb(85, 85, 85); font-family: Arial, sans-serif; font-size: 10px; white-space: pre;" x="55.474" y="1.676">Password</text>
    <line style="stroke: rgb(119, 119, 119);" x1="78.318" y1="22.557" x2="78.862" y2="52.632"/>
  </g>
  <g transform="matrix(1, 0, 0, 1, -387.903717, 198.966156)">
    <title>Conector</title>
    <rect x="396.16" y="198.058" width="40" height="40" style="fill: rgb(216, 216, 216); stroke: rgb(119, 119, 119);" transform="matrix(0.707107, 0.707107, -0.707107, 0.707107, 302.901611, -222.118073)"/>
    <line style="stroke: rgb(119, 119, 119);" x1="443.189" y1="198.109" x2="443.907" y2="85.21"/>
    <line style="stroke: rgb(119, 119, 119);" x1="470.576" y1="225.513" x2="617.629" y2="224.963"/>
    <text style="fill: rgb(85, 85, 85); font-family: Arial, sans-serif; font-size: 9px; white-space: pre;" x="421.662" y="228.955">administra</text>
    <text style="fill: rgb(85, 85, 85); font-family: Arial, sans-serif; font-size: 11.9px; white-space: pre;" x="606.474" y="236.284">N</text>
    <text style="fill: rgb(85, 85, 85); font-family: Arial, sans-serif; font-size: 11.9px; white-space: pre;" x="446.348" y="98.157">1</text>
  </g>
  <g transform="matrix(1, 0, 0, 1, 387.088104, 431.909058)">
    <title>Box</title>
    <rect x="56.746" y="52.522" width="95.508" height="52.66" style="fill: rgb(216, 216, 216); stroke: rgb(119, 119, 119);" rx="3.838" ry="3.838"/>
    <text style="fill: rgb(85, 85, 85); font-family: Arial, sans-serif; font-size: 11.9px; white-space: pre;" x="85.464" y="80.887" transform="matrix(1, 0, 0, 1, -6.844914, 1.242645)">Fotografia<tspan x="85.46399688720703" dy="1em">​</tspan></text>
  </g>
  <g transform="matrix(1, 0, 0, 1, 419.487122, 516.126648)">
    <title>Ball</title>
    <line style="stroke: rgb(119, 119, 119);" x1="68.38" y1="-39.635" x2="7.036" y2="-39.318"/>
  </g>
  <g transform="matrix(1, 0, 0, 1, 450.702043, 516.581275)">
    <title>Ball</title>
    <line style="stroke: rgb(119, 119, 119);" x1="37.019" y1="-32.478" x2="37.032" y2="-40.488"/>
  </g>
  <g transform="matrix(1, 0, 0, 1, 439.978119, 435.091644)">
    <title>Ball</title>
    <ellipse style="fill: rgb(216, 216, 216); stroke: rgb(119, 119, 119);" cx="78.055" cy="-0.144" rx="30.166" ry="22.576"/>
    <text style="fill: rgb(85, 85, 85); font-family: Arial, sans-serif; font-size: 10px; white-space: pre; text-decoration: underline solid rgba(255, 255, 255, 0.8);" x="51.595" y="2.011">idFotografia</text>
    <line style="stroke: rgb(119, 119, 119);" x1="75.59" y1="22.729" x2="75.387" y2="49.271"/>
  </g>
</svg>